<svg enable-background="new 0 0 448.5 145.5" height="145.5" viewBox="0 0 448.5 145.5" width="448.5" xmlns="http://www.w3.org/2000/svg"><switch><g clip-rule="evenodd" fill-rule="evenodd"><g enable-background="new" fill="#074098"><path d="m105.611.046h-23.82v18.673h-48.024v9.824h48.024v18.012h-33.705v11.107h67.414s-.001 15.927-20.25 37.588-27.836 24.915-37.5 27.75-26.037 2.38-31.5-1.5-11.751-8.9-11.25-18 11.884-19.412 18.877-20.523c0 0-20.044-2.206-24.544 18.106-3.455 15.596 6.602 23.258 12.417 27.167s18.19 8.475 26.336 9 25.84-.552 42.664-12.75c16.823-12.198 37.282-36.662 43.5-51.75s8.91-21.331 9.75-26.195h-38.389v-18.012h50.234v-9.824h-50.234z"/><path d="m186 .046s-2.498 21.476-33.75 44.954l3.595 5.25s13.926-5.466 17.401-8.25v80.25h24.732v-96.75s12.021-12.461 12.022-25.454h-24z"/><path d="m245.961.046v26.958h-43.476v9.078h43.476v85.418h24.122v-85.418h11.255v-9.078h-11.255v-26.958z"/><path d="m364.452.046v11.216h46.508v7.456c0 22.097-14.212 24.825-14.212 24.825h-32.296v19.421h32.296v9.786h-32.296v45.75h-24.702v-45.75h-34.568v-9.786h34.568v-19.421h-49.471v-35.254h23.06v2.973h26.412v-11.216zm-51.114 21.475v13.009h77.412v-13.009z"/></g><g enable-background="new" fill="#ed6c1f"><path d="m44.099 136.744s-22.471-3.673-32.099-20.494c-3.67-6.411-4.042-19.25 6-27.75 8.357-7.074 19.518-6.553 33.75-3s24.419 8.078 42.75 17.25c18.486 9.25 44.916 22.501 78.656 29.647 33.741 7.146 52.273 9.357 72.805 10.853 35.377 2.577 149.409-2.407 164.998-6l37.541-39s-112.934 17.355-183.75 18-78.784-3.66-95.25-6.75-59.859-17.214-72.75-22.5c-6.296-2.582-41.73-16.265-62.983-14.25s-32.612 11.242-33.017 25.5 5.059 33.916 43.349 38.494z"/><path d="m206.624 46.661h29.734v29.734h-29.734z" transform="matrix(-.7071 .7071 -.7071 -.7071 421.6157 -51.5838)"/><path d="m378.414 78.855h20.945v20.945h-20.945z" transform="matrix(-.7071 .7071 -.7071 -.7071 727.0344 -122.4926)"/></g></g></switch></svg>